<svg id="Capa_1" data-name="Capa 1" xmlns="http://www.w3.org/2000/svg" xmlns:xlink="http://www.w3.org/1999/xlink" viewBox="0 0 269.99 64.51"><defs><clipPath id="clip-path" transform="translate(-239.44 -375.33)"><rect x="239.44" y="375.33" width="269.99" height="64.51" style="fill:none"/></clipPath></defs><g id="Logotipo_Principal" data-name="Logotipo Principal"><g style="clip-path:url(#clip-path)"><g style="clip-path:url(#clip-path)"><path d="M257.91,377.39a29.53,29.53,0,0,0-16.31,38.43,30.46,30.46,0,0,0,2.19,4.2.51.51,0,0,0,.63.2l6.28-2.5,5-2,30.13-12,5.87-2.32,5.62-2.23a.46.46,0,0,0,.27-.51,30.71,30.71,0,0,0-1.4-4.52A29.52,29.52,0,0,0,258,377.37l-.07,0m4.52,11.35a17.43,17.43,0,0,1,19.48,4.7l-30.39,12.11a17.47,17.47,0,0,1,10.91-16.81" transform="translate(-239.44 -375.33)" style="fill:#e7004c"/><path d="M297.93,408c0-1-.36-1.33-1.16-.95-4.88,2.28-9.72,4.65-14.57,7l-.75.36a.8.8,0,0,0-.57.81c0,.41.31.6.69.69l.44.11c.38.11.63.18,1,.3a.73.73,0,0,1,.41,1.17,4,4,0,0,1-.3.39c-.51.58-1,1.16-1.53,1.73l0,0a23.59,23.59,0,0,1-8.05,5.65c-.87.38-1.69.71-2.41,1-8.2,2.84-17.33,2.11-23-.29a.2.2,0,0,0-.26.09.27.27,0,0,0,0,.21c5.71,6.59,15.32,9.76,24.81,8.54a31.12,31.12,0,0,0,9.15-2.61A39,39,0,0,0,292,424.79c.23-.25,1-1.1,1.13-1.21a.77.77,0,0,1,1.26,0c.25.29.46.57.69.88.07.08.15.2.22.29a.76.76,0,0,0,.9.39c.4-.12.51-.45.55-.83.12-1.27,1.11-13.51,1.2-16.24" transform="translate(-239.44 -375.33)" style="fill:#e7004c"/><path d="M323.48,431.54A.52.52,0,0,1,323,431V418.48c0-3.22-1.78-6.14-5.24-6.14-3.67,0-5.55,2.88-5.55,6.14V431a.51.51,0,0,1-.53.51h-5.11A.52.52,0,0,1,306,431V407.6a.52.52,0,0,1,.53-.52h4.84a.55.55,0,0,1,.53.44l.4,2.54c1.34-2.48,4.32-3.45,6.71-3.45a7.74,7.74,0,0,1,7.54,4.63,9.52,9.52,0,0,1,8.52-4.63c7.21,0,10.81,4.44,10.81,11.77V431a.51.51,0,0,1-.53.51h-5.22a.52.52,0,0,1-.54-.51h0V418.38c0-3.22-1.4-5.95-4.8-5.95-3.61,0-5.56,2.83-5.56,6.05V431a.52.52,0,0,1-.53.51Z" transform="translate(-239.44 -375.33)"/><path d="M443.88,431.54a.51.51,0,0,1-.51-.51V418.78c0-3.69-2-6.49-5.82-6.54a6.4,6.4,0,0,0-6.32,6.47V431a.51.51,0,0,1-.51.51h-5a.5.5,0,0,1-.51-.5h0V407.6a.52.52,0,0,1,.51-.52h4.44a.53.53,0,0,1,.5.45l.33,2.39a10.69,10.69,0,0,1,8-3.31c5.77,0,10.35,4.44,10.35,12.11V431a.51.51,0,0,1-.51.51h-5Z" transform="translate(-239.44 -375.33)"/><path d="M393.45,412.5l1.57-5.82a9.82,9.82,0,0,0-1.21-.07c-2.47,0-5,.45-6.88,3.35l-.38-2.39a.51.51,0,0,0-.5-.43h-4.64a.51.51,0,0,0-.52.51V431a.51.51,0,0,0,.51.51h5a.51.51,0,0,0,.52-.51V418.67c0-4.5,2.92-6.19,6.08-6.19Z" transform="translate(-239.44 -375.33)"/><path d="M363.82,406.61a12.77,12.77,0,0,0-6.89,2l-.18-1.1a.52.52,0,0,0-.51-.43h-5.09a.51.51,0,0,0-.51.51h0v31.7a.5.5,0,0,0,.5.52h5.05a.51.51,0,0,0,.51-.51h0V430.1a12.83,12.83,0,1,0,7.14-23.49Zm0,19.87a7,7,0,1,1,7-7,7,7,0,0,1-7,7" transform="translate(-239.44 -375.33)"/><path d="M479,398.88h-5a.53.53,0,0,0-.52.52v9.37a12.75,12.75,0,1,0-.23,21.34l.17,1a.51.51,0,0,0,.5.42H479a.51.51,0,0,0,.51-.51V399.4a.51.51,0,0,0-.5-.52h0m-12.56,27.46a7,7,0,1,1,7-7h0a7,7,0,0,1-7,7" transform="translate(-239.44 -375.33)"/><path d="M508.64,413.83c-.1-.2-.22-.38-.32-.57a13.09,13.09,0,0,0-17.09-5.37,12.74,12.74,0,0,0-6.05,17l.11.23c0,.06.07.12.1.18l.1.18.09.16a12.45,12.45,0,0,0,5.65,5.3c.22.11.43.2.66.29l.19.08A13.14,13.14,0,0,0,502.7,431l.22-.1a12.79,12.79,0,0,0,6.4-7.37A.42.42,0,0,0,509,423l-.06,0-4.52-.63a.72.72,0,0,0-.72.4,7.6,7.6,0,0,1-3.44,3.38c-.21.1-.41.18-.62.26l-.15.05a5,5,0,0,1-.55.17h-.07c-3.14.78-6.34-.56-7.17-1.95a.15.15,0,0,1,.06-.18l10.47-5,7-3.39a.28.28,0,0,0,.14-.31,14.1,14.1,0,0,0-.79-1.88m-19,6.2a.12.12,0,0,1-.15,0,.06.06,0,0,1,0,0,7.35,7.35,0,0,1,4.19-7.17,7.62,7.62,0,0,1,8.34,1.14.11.11,0,0,1,0,.15l0,0Z" transform="translate(-239.44 -375.33)"/><path d="M325.79,401.37a.07.07,0,0,0,.07-.07v-2.15a.07.07,0,0,0-.07-.07h-6.64v-.39c0-1.35.83-2,2.48-2,3.34,0,5-1.26,5-3.85s-2.64-3.65-4.91-3.65c-2.86,0-4.71,1.25-5,3.35a.11.11,0,0,0,0,.07,0,0,0,0,0,0,0h2.66a.08.08,0,0,0,.06,0c.23-.88,1-1.33,2.17-1.33s2.13.62,2.13,1.62c0,1.19-1.1,1.73-2.18,1.73-3.47,0-5.15,1.37-5.15,4.18v2.52a.07.07,0,0,0,.06.07Z" transform="translate(-239.44 -375.33)"/><path d="M338.35,401.6c2.46,0,5.33-.93,5.33-3.57a2.4,2.4,0,0,0-1.58-2.39.49.49,0,0,1-.3-.42.49.49,0,0,1,.27-.44,2.37,2.37,0,0,0,1.32-2c0-2.67-2.71-3.61-5-3.61-1.07,0-4.57.25-4.94,3.43a0,0,0,0,0,0,0h2.68c.2-.78,1-1.25,2.22-1.25,1.43,0,2.18.79,2.18,1.57s-.83,1.45-2.18,1.45h-.92a0,0,0,0,0-.05,0v1.69a0,0,0,0,0,.05.05h1.08c2,0,2.17,1.29,2.17,1.69,0,1.09-1.09,1.65-2.17,1.65-1.38,0-2.3-.55-2.51-1.52h-2.78c.21,2.71,2.78,3.66,5.11,3.66" transform="translate(-239.44 -375.33)"/><path d="M306.08,401.37h2.48a.07.07,0,0,0,.07-.07V389.39s0-.05,0-.05,0,0-.06,0l-4.43,1.6a.08.08,0,0,0,0,.06v1.91s0,0,0,.05h0l1.86-.55v8.89a.07.07,0,0,0,.07.07" transform="translate(-239.44 -375.33)"/><path d="M310.52,402.42a2.86,2.86,0,0,0,1.27-.85,2.47,2.47,0,0,0,.58-1.34,1.1,1.1,0,0,0-.92-1.16h-.18a1,1,0,0,0-1,.85,1.11,1.11,0,0,0,.09.59,2.41,2.41,0,0,1,.24,1.82Z" transform="translate(-239.44 -375.33)"/><path d="M327.76,402.42a2.91,2.91,0,0,0,1.27-.85,2.47,2.47,0,0,0,.58-1.34,1.09,1.09,0,0,0-.92-1.16h-.18a1,1,0,0,0-1.05.85,1.11,1.11,0,0,0,.09.59,2.4,2.4,0,0,1,.24,1.82Z" transform="translate(-239.44 -375.33)"/><path d="M345.23,402.42a2.86,2.86,0,0,0,1.27-.85,2.41,2.41,0,0,0,.58-1.34,1.1,1.1,0,0,0-.92-1.16H346a1,1,0,0,0-1.06.85,1.11,1.11,0,0,0,.09.59,2.41,2.41,0,0,1,.24,1.82Z" transform="translate(-239.44 -375.33)"/><path d="M420.2,413.83c-.1-.2-.21-.38-.32-.57a13.09,13.09,0,0,0-17.09-5.37,12.75,12.75,0,0,0-6.05,17l.11.23c0,.06.07.12.1.18l.1.18.09.16a12.45,12.45,0,0,0,5.65,5.3c.22.11.43.2.66.29l.19.08a13.14,13.14,0,0,0,10.62-.32l.22-.1a12.76,12.76,0,0,0,6.4-7.37.41.41,0,0,0-.28-.52l-.06,0-4.52-.63a.72.72,0,0,0-.72.4,7.6,7.6,0,0,1-3.44,3.38c-.21.1-.41.18-.62.26l-.15.05a5.6,5.6,0,0,1-.54.17h-.08c-3.14.78-6.34-.56-7.17-1.95a.15.15,0,0,1,.06-.18l10.47-5,7-3.39a.28.28,0,0,0,.14-.31,14.1,14.1,0,0,0-.79-1.88m-19,6.2a.12.12,0,0,1-.15,0,.06.06,0,0,1,0,0,7.35,7.35,0,0,1,4.19-7.17,7.62,7.62,0,0,1,8.34,1.14.11.11,0,0,1,0,.15l0,0Z" transform="translate(-239.44 -375.33)"/></g></g></g></svg>